<svg fill="none" xmlns="http://www.w3.org/2000/svg">
<path d="M28.2433 68.5577L15.4302 57.7428C14.8389 122.394 63.7632 163.524 88.2993 176.008C76.736 131.205 116.425 129.661 137.025 136.19C137.025 136.19 136.083 113.488 145.308 103.203C152.301 95.4088 168.923 99.1136 174.447 100.158L138.01 28.4381L63.663 71.8013L47.8325 44.373L43.3143 63.5102L28.2433 68.5577Z" fill="black"/>
<path d="M57.3989 13.6072L52.6407 47.0348L49.8698 41.2555C49.0568 39.5677 47.9977 38.8045 46.5981 38.9947C45.1984 39.185 44.5866 40.5034 43.9419 43.1675C43.9419 43.1675 40.6446 55.5737 39.8203 61.3648L36.0477 62.6228L37.7686 0.0429688L57.3989 13.6072Z" fill="black"/>
<path d="M58.5208 56.5283L55.5075 52.5306L60.7227 3.31055L78.0422 20.0509L58.5208 56.5283Z" fill="#2DB8E6"/>
<path d="M62.6414 62.6913L61.1078 60.6818L86.939 7.04257L100.741 25.1274L62.6414 62.6913Z" fill="black" stroke="black" stroke-width="0.1"/>
<path d="M116.664 14.2468L63.9827 66.5987L122.999 33.2853L116.664 14.2468Z" fill="#C92630"/>
<rect x="1.5" y="99.5" width="182" height="32" fill="white" stroke="black"/>
<rect x="0.65" y="98.65" width="183.7" height="33.7" stroke="white" stroke-width="0.7"/>
<path d="M28.9586 122.137C29.6185 122.137 30.1584 122.089 30.5783 121.992C31.0182 121.876 31.3681 121.73 31.6281 121.556C31.888 121.362 32.068 121.14 32.168 120.888C32.268 120.636 32.318 120.355 32.318 120.046C32.318 119.387 31.998 118.845 31.3581 118.419C30.7183 117.974 29.6185 117.499 28.0588 116.996C27.3789 116.763 26.6991 116.502 26.0192 116.212C25.3393 115.902 24.7295 115.524 24.1896 115.079C23.6497 114.614 23.2098 114.062 22.8698 113.423C22.5299 112.765 22.3599 111.971 22.3599 111.041C22.3599 110.112 22.5399 109.279 22.8998 108.544C23.2597 107.788 23.7696 107.149 24.4295 106.627C25.0894 106.104 25.8892 105.707 26.829 105.436C27.7689 105.145 28.8286 105 30.0084 105C31.4081 105 32.6179 105.145 33.6377 105.436C34.6575 105.726 35.4973 106.046 36.1572 106.394L34.8075 109.967C34.2276 109.676 33.5777 109.425 32.8578 109.212C32.158 108.979 31.3082 108.863 30.3084 108.863C29.1886 108.863 28.3787 109.018 27.8788 109.328C27.3989 109.618 27.159 110.073 27.159 110.693C27.159 111.061 27.249 111.371 27.4289 111.622C27.6089 111.874 27.8588 112.107 28.1788 112.32C28.5187 112.513 28.8986 112.697 29.3185 112.871C29.7585 113.026 30.2384 113.191 30.7583 113.365C31.838 113.752 32.7779 114.14 33.5777 114.527C34.3775 114.895 35.0374 115.331 35.5573 115.834C36.0972 116.337 36.4971 116.928 36.7571 117.606C37.017 118.284 37.147 119.107 37.147 120.075C37.147 121.953 36.4671 123.415 35.1074 124.461C33.7477 125.487 31.6981 126 28.9586 126C28.0388 126 27.209 125.942 26.4691 125.826C25.7293 125.729 25.0694 125.603 24.4895 125.448C23.9296 125.293 23.4397 125.129 23.0198 124.954C22.6199 124.78 22.2799 124.615 22 124.461L23.3197 120.859C23.9396 121.188 24.6995 121.488 25.5993 121.759C26.5191 122.011 27.6389 122.137 28.9586 122.137Z" fill="black"/>
<path d="M71.8421 126C68.4628 126 65.8833 125.09 64.1037 123.27C62.344 121.45 61.4642 118.864 61.4642 115.515C61.4642 113.849 61.7341 112.368 62.274 111.071C62.8139 109.754 63.5538 108.65 64.4936 107.759C65.4334 106.849 66.5532 106.162 67.8529 105.697C69.1527 105.232 70.5624 105 72.0821 105C72.9619 105 73.7618 105.068 74.4816 105.203C75.2015 105.32 75.8313 105.465 76.3712 105.639C76.9111 105.794 77.361 105.959 77.721 106.133C78.0809 106.307 78.3408 106.443 78.5008 106.539L77.1511 110.199C76.5112 109.87 75.7614 109.589 74.9015 109.357C74.0617 109.124 73.1019 109.008 72.0221 109.008C71.3022 109.008 70.5924 109.124 69.8925 109.357C69.2127 109.589 68.6028 109.967 68.0629 110.49C67.543 110.993 67.1231 111.651 66.8031 112.465C66.4832 113.278 66.3232 114.266 66.3232 115.427C66.3232 116.357 66.4232 117.228 66.6232 118.041C66.8431 118.835 67.1831 119.523 67.643 120.104C68.1229 120.685 68.7427 121.149 69.5026 121.498C70.2624 121.827 71.1823 121.992 72.2621 121.992C72.9419 121.992 73.5518 121.953 74.0917 121.876C74.6316 121.798 75.1115 121.711 75.5314 121.614C75.9513 121.498 76.3212 121.372 76.6412 121.237C76.9611 121.101 77.2511 120.975 77.511 120.859L78.8008 124.49C78.1409 124.877 77.2111 125.225 76.0113 125.535C74.8115 125.845 73.4218 126 71.8421 126Z" fill="black"/>
<path d="M115.968 105.465H120.647V125.593H115.968V117.054H108.109V125.593H103.43V105.465H108.109V113.162H115.968V105.465Z" fill="black"/>
<path d="M160.991 125.593C160.771 124.896 160.521 124.18 160.241 123.444C159.981 122.708 159.721 121.972 159.461 121.237H151.363C151.103 121.972 150.833 122.708 150.553 123.444C150.293 124.18 150.053 124.896 149.833 125.593H144.974C145.754 123.425 146.494 121.42 147.194 119.581C147.894 117.741 148.573 116.008 149.233 114.382C149.913 112.755 150.573 111.216 151.213 109.763C151.873 108.292 152.553 106.859 153.253 105.465H157.722C158.402 106.859 159.071 108.292 159.731 109.763C160.391 111.216 161.051 112.755 161.711 114.382C162.391 116.008 163.081 117.741 163.78 119.581C164.48 121.42 165.22 123.425 166 125.593H160.991ZM155.382 110.025C155.282 110.315 155.132 110.712 154.932 111.216C154.732 111.719 154.502 112.3 154.242 112.959C153.982 113.617 153.692 114.343 153.372 115.137C153.073 115.931 152.763 116.763 152.443 117.635H158.352C158.032 116.763 157.722 115.931 157.422 115.137C157.122 114.343 156.832 113.617 156.552 112.959C156.292 112.3 156.062 111.719 155.862 111.216C155.662 110.712 155.502 110.315 155.382 110.025Z" fill="black"/>
<path d="M56.415 69C53.6154 71.6306 46.7868 77.0125 41.8698 77.4952C45.8508 81.1429 54.7313 84.9155 56.415 69Z" fill="white" stroke="black"/>
<path d="M22 83.7764C25.7979 83.6561 34.4181 82.6159 38.5155 79.4179C37.7095 84.9224 33.1974 94.0508 22 83.7764Z" fill="white" stroke="black"/>
</svg>
